<?xml version="1.0" standalone="no"?>
<!DOCTYPE svg PUBLIC "-//W3C//DTD SVG 20010904//EN"
 "http://www.w3.org/TR/2001/REC-SVG-20010904/DTD/svg10.dtd">
<svg version="1.0" xmlns="http://www.w3.org/2000/svg"
 width="180.000000pt" height="180.000000pt" viewBox="0 0 180.000000 180.000000"
 preserveAspectRatio="xMidYMid meet">
<metadata>
Created by potrace 1.14, written by Peter Selinger 2001-2017
</metadata>
<g transform="translate(0.000000,180.000000) scale(0.100000,-0.100000)"
fill="#000000" stroke="none">
<path d="M1115 1440 c-29 -5 -31 -8 -29 -45 1 -22 2 -45 3 -51 1 -7 20 -10 51
-9 28 1 50 0 50 -4 0 -4 -18 -24 -40 -46 l-40 -39 -47 17 c-27 9 -56 17 -66
17 -10 0 -33 11 -50 23 -71 52 -152 65 -231 36 -125 -46 -191 -189 -146 -317
13 -36 15 -53 7 -61 -17 -17 -30 -13 -58 20 l-26 31 -37 -35 c-20 -19 -36 -37
-36 -39 0 -3 14 -20 30 -38 l30 -34 -32 -33 -32 -33 36 -37 37 -37 31 32 c16
18 32 32 35 32 3 0 18 -14 35 -32 l30 -31 35 33 c19 19 35 38 35 43 0 5 -14
23 -31 40 -29 28 -30 32 -14 43 12 9 23 10 36 4 9 -6 41 -15 71 -21 29 -6 69
-21 88 -33 52 -34 93 -45 152 -42 128 7 228 113 228 242 0 18 -7 55 -17 83
l-16 51 45 45 46 45 0 -50 c1 -28 3 -54 6 -59 3 -5 26 -8 51 -8 l45 0 0 149 0
148 -77 1 c-43 0 -96 1 -118 2 -22 1 -54 0 -70 -3z m-296 -196 c10 -3 6 -11
-13 -29 -44 -41 -71 -104 -71 -167 0 -62 -1 -64 -26 -45 -52 40 -66 105 -37
165 26 56 97 92 147 76z m115 -100 c18 -47 -5 -109 -54 -144 -35 -25 -40 -23
-42 11 -2 56 4 76 33 112 33 40 53 47 63 21z m162 -29 c38 -59 14 -157 -49
-195 -27 -17 -107 -29 -107 -16 0 2 16 21 35 41 43 48 62 102 64 183 1 30 3
32 21 22 11 -6 27 -22 36 -35z"/>
<path d="M285 619 c-12 -19 3 -22 27 -5 l22 16 -21 0 c-12 0 -25 -5 -28 -11z"/>
<path d="M161 589 c-25 -10 -40 -42 -33 -75 5 -28 20 -41 47 -44 35 -4 45 0
45 15 0 9 -6 15 -12 14 -36 -4 -48 2 -48 25 0 28 21 49 42 41 9 -4 18 0 21 8
7 18 -30 27 -62 16z"/>
<path d="M278 592 c-51 -6 -64 -102 -15 -118 45 -16 82 1 89 40 10 51 -22 85
-74 78z m38 -59 c4 -23 -14 -43 -32 -36 -17 6 -19 60 -1 66 15 6 30 -8 33 -30z"/>
<path d="M582 592 c-44 -7 -63 -70 -32 -107 16 -19 69 -24 85 -9 7 8 12 22 10
31 -2 10 -4 21 -4 26 -2 15 -51 7 -51 -9 0 -8 5 -12 10 -9 6 3 10 -1 10 -10 0
-20 -19 -15 -34 8 -15 23 4 52 34 52 13 0 25 5 27 11 4 13 -22 21 -55 16z"/>
<path d="M679 581 c-24 -20 -29 -72 -8 -97 13 -15 66 -19 87 -5 15 9 24 71 13
90 -4 6 -22 15 -39 20 -25 8 -36 6 -53 -8z m61 -51 c0 -32 -23 -46 -41 -24 -9
11 -9 21 -1 39 15 32 42 23 42 -15z"/>
<path d="M1293 587 c-3 -5 -5 -30 -4 -54 0 -23 -3 -43 -9 -43 -5 0 -10 9 -10
19 0 11 -4 23 -10 26 -5 3 -10 17 -10 31 0 20 -5 24 -28 24 -24 0 -29 -6 -48
-60 -20 -57 -20 -60 -3 -60 10 0 21 5 24 10 8 13 45 13 45 1 0 -6 18 -9 40 -9
24 0 40 5 39 12 -1 6 0 20 1 31 1 14 5 11 11 -12 6 -22 16 -33 28 -33 12 0 22
11 29 33 l10 32 1 -32 c1 -22 6 -33 16 -33 12 0 15 13 15 60 0 57 -1 60 -25
60 -20 0 -26 -7 -36 -42 l-13 -43 -9 42 c-9 41 -39 64 -54 40z m-63 -59 c0 -5
-4 -8 -10 -8 -5 0 -10 10 -10 23 0 18 2 19 10 7 5 -8 10 -18 10 -22z"/>
<path d="M1483 589 c-45 -17 -55 -68 -20 -103 57 -57 139 27 87 89 -15 18 -42
23 -67 14z m47 -58 c0 -23 -19 -41 -36 -34 -17 6 -18 60 -1 66 16 6 37 -12 37
-32z"/>
<path d="M369 588 c0 -2 -2 -27 -3 -57 -1 -45 2 -54 19 -61 41 -15 85 19 85
66 0 38 -21 54 -69 54 -17 0 -31 -1 -32 -2z m65 -44 c7 -19 -2 -41 -20 -48
-11 -4 -14 4 -14 34 0 30 3 38 14 34 8 -3 17 -12 20 -20z"/>
<path d="M489 588 c0 -2 -1 -29 -2 -60 -2 -49 1 -58 15 -58 15 0 18 9 18 60 0
47 -3 60 -15 60 -8 0 -15 -1 -16 -2z"/>
<path d="M830 530 l0 -60 33 0 c47 0 70 20 69 59 -1 45 -18 61 -63 61 l-39 0
0 -60z m68 -4 c-4 -28 -38 -35 -38 -8 0 11 3 28 6 36 9 23 36 -1 32 -28z"/>
<path d="M950 531 c0 -53 2 -59 23 -63 12 -2 30 -2 40 0 14 3 16 7 6 18 -6 7
-15 12 -19 9 -4 -3 -10 2 -14 10 -4 10 1 15 14 15 26 0 26 20 0 27 -11 3 -17
10 -14 15 3 5 12 7 20 4 8 -3 14 1 14 9 0 10 -11 15 -35 15 l-35 0 0 -59z"/>
<path d="M1036 538 c1 -29 2 -56 3 -60 1 -5 19 -8 41 -8 30 0 40 4 40 16 0 8
-4 13 -9 10 -23 -15 -41 7 -41 50 0 36 -3 44 -18 44 -15 0 -18 -8 -16 -52z"/>
<path d="M1580 525 c0 -53 3 -63 15 -59 8 4 15 15 15 25 0 25 16 24 23 -1 3
-12 14 -20 26 -20 25 0 27 12 6 30 -11 9 -12 17 -4 31 19 36 2 59 -42 59 l-39
0 0 -65z m49 16 c-15 -5 -22 6 -14 19 6 9 10 9 16 -1 5 -8 4 -15 -2 -18z"/>
</g>
</svg>
