<?xml version="1.0" standalone="no"?>
<!DOCTYPE svg PUBLIC "-//W3C//DTD SVG 20010904//EN"
 "http://www.w3.org/TR/2001/REC-SVG-20010904/DTD/svg10.dtd">
<svg version="1.0" xmlns="http://www.w3.org/2000/svg"
 width="458.000000pt" height="84.000000pt" viewBox="0 0 458.000000 84.000000"
 preserveAspectRatio="xMidYMid meet">

<g transform="translate(0.000000,84.000000) scale(0.100000,-0.100000)"
fill="#000000" stroke="none">
<path d="M4385 824 c-34 -6 -421 -25 -600 -30 -93 -2 -195 -7 -225 -11 -30 -4
-62 -6 -70 -5 -8 1 -24 -3 -35 -9 -12 -6 -30 -7 -42 -2 -12 4 -59 5 -105 2
-46 -4 -164 -9 -262 -13 -156 -6 -183 -10 -204 -27 -14 -10 -28 -17 -31 -14
-3 4 1 11 9 16 10 7 -11 8 -65 6 -44 -2 -141 -7 -215 -10 -159 -7 -162 -7
-156 -22 2 -6 -2 -12 -9 -12 -7 0 -11 7 -8 15 5 12 2 12 -16 3 -12 -7 -25 -9
-30 -6 -5 3 -12 -1 -14 -7 -4 -9 -8 -10 -14 -2 -15 19 -37 22 -137 13 -62 -5
-103 -13 -108 -21 -6 -10 -10 -10 -17 1 -7 12 -55 11 -312 -3 -167 -10 -385
-21 -484 -26 -99 -5 -261 -14 -360 -19 -767 -41 -735 -38 -735 -57 0 -18 -14
-18 -30 1 -20 25 -100 15 -100 -12 0 -9 5 -11 13 -7 7 5 6 0 -3 -10 -14 -18
-9 -18 130 -12 80 3 152 6 160 7 86 5 560 31 645 35 61 3 175 9 255 14 80 5
197 11 260 14 421 15 615 28 627 43 9 12 15 12 32 1 18 -11 22 -10 35 7 8 11
18 17 22 12 4 -4 2 -7 -4 -7 -7 0 -12 -4 -12 -10 0 -5 7 -10 15 -10 8 0 15 5
15 11 0 8 4 8 14 0 18 -15 82 -10 79 6 -4 21 39 27 53 8 10 -13 20 -15 45 -10
19 4 84 7 146 7 106 0 113 1 113 19 0 11 5 17 10 14 6 -4 8 -11 5 -16 -8 -13
87 -11 380 6 138 8 273 15 300 16 62 3 75 7 75 25 0 19 19 18 26 -1 5 -11 18
-15 45 -13 21 2 39 5 39 8 0 3 55 4 122 4 68 -1 233 5 368 13 330 19 334 19
425 21 91 3 110 10 100 41 -6 19 -13 21 -73 20 -37 -1 -76 -3 -87 -5z m-895
-58 c0 -3 -4 -8 -10 -11 -5 -3 -10 -1 -10 4 0 6 5 11 10 11 6 0 10 -2 10 -4z
m97 -12 c-3 -3 -12 -4 -19 -1 -8 3 -5 6 6 6 11 1 17 -2 13 -5z m-787 -34 c0
-5 -2 -10 -4 -10 -3 0 -8 5 -11 10 -3 6 -1 10 4 10 6 0 11 -4 11 -10z m-2160
-124 c0 -3 -4 -8 -10 -11 -5 -3 -10 -1 -10 4 0 6 5 11 10 11 6 0 10 -2 10 -4z
m-382 -25 c3 -8 -1 -12 -9 -9 -7 2 -15 10 -17 17 -3 8 1 12 9 9 7 -2 15 -10
17 -17z"/>
<path d="M4214 715 c-71 -30 -113 -135 -94 -236 21 -110 82 -159 195 -159 58
0 68 3 72 20 4 15 11 18 28 14 44 -11 86 60 92 156 4 57 1 72 -24 119 -39 76
-68 94 -153 99 -54 3 -70 1 -70 -9 0 -10 -2 -11 -8 -2 -5 8 -15 8 -38 -2z m93
-1 c-3 -3 -12 -4 -19 -1 -8 3 -5 6 6 6 11 1 17 -2 13 -5z m76 -74 c31 -27 35
-38 42 -96 14 -131 -58 -195 -168 -149 -19 8 -37 23 -40 35 -4 14 -10 18 -24
14 -14 -5 -15 -4 -4 4 10 7 12 21 7 52 -21 132 96 220 187 140z"/>
<path d="M3887 703 c-4 -3 -39 -7 -79 -7 -71 -1 -73 -2 -73 -26 0 -24 3 -25
61 -28 l61 -3 8 -102 c5 -56 9 -125 9 -153 1 -56 17 -84 50 -84 15 0 17 3 8 9
-10 6 -9 10 7 14 16 4 20 11 17 29 -3 12 -5 25 -5 28 -1 3 -3 62 -5 132 l-5
127 29 14 c20 10 32 11 39 4 16 -16 63 9 59 31 -2 13 -15 18 -58 20 -46 3 -57
0 -73 -20 l-19 -23 5 23 c4 16 1 22 -12 22 -10 0 -21 -3 -24 -7z m38 -163 c3
-5 -1 -10 -9 -10 -9 0 -16 5 -16 10 0 6 4 10 9 10 6 0 13 -4 16 -10z m-15
-100 c0 -5 -2 -10 -4 -10 -3 0 -8 5 -11 10 -3 6 -1 10 4 10 6 0 11 -4 11 -10z"/>
<path d="M3461 679 c-67 -8 -83 -15 -64 -27 8 -5 9 -13 3 -22 -6 -8 -10 -46
-10 -84 0 -60 2 -67 17 -62 15 6 15 5 2 -11 -9 -10 -14 -26 -12 -35 5 -22 41
-24 49 -3 4 8 31 19 65 26 32 6 59 16 59 20 0 5 5 9 11 9 5 0 7 -4 4 -10 -3
-5 3 -10 14 -10 12 0 21 5 21 10 0 6 5 10 11 10 5 0 7 -4 4 -10 -3 -5 3 -10
15 -10 25 0 37 25 20 45 -19 23 -119 17 -104 -6 7 -13 -10 -11 -23 2 -6 6 -23
9 -39 7 -23 -2 -29 -8 -28 -25 0 -14 -7 -25 -18 -29 -27 -8 -35 4 -14 19 13 9
20 30 22 68 6 82 2 79 108 79 53 0 98 4 101 10 3 6 3 20 0 31 -7 21 -18 22
-110 8 -5 -1 -17 1 -25 4 -8 2 -44 1 -79 -4z m-16 -178 c-9 -16 -25 -3 -18 15
4 10 9 12 15 6 6 -6 7 -15 3 -21z"/>
<path d="M3095 671 c-27 -3 -56 -10 -62 -14 -18 -12 -16 -74 2 -81 20 -7 19
-36 -1 -36 -13 0 -15 -7 -9 -42 4 -23 7 -68 7 -100 0 -35 5 -58 11 -58 8 0 8
-3 0 -11 -11 -11 -6 -56 9 -65 13 -8 64 6 52 14 -14 11 -16 33 -2 49 6 8 11
36 9 64 -2 48 -2 49 26 49 31 -1 99 -33 96 -47 -1 -4 7 -18 17 -31 11 -12 20
-25 20 -28 0 -3 9 -19 20 -34 17 -24 25 -27 48 -21 32 9 39 32 17 54 -8 9 -15
22 -15 29 0 8 -18 31 -39 52 -38 37 -39 38 -20 57 10 10 23 19 28 19 17 0 41
43 41 72 0 40 -20 78 -51 93 -33 17 -137 26 -204 16z m205 -57 c0 -17 -22 -14
-28 4 -2 7 3 12 12 12 9 0 16 -7 16 -16z m-43 -14 c7 -8 13 -29 13 -46 0 -23
-6 -34 -26 -44 -22 -12 -24 -16 -10 -26 22 -16 20 -27 -4 -21 -11 3 -20 0 -20
-6 0 -7 -5 -6 -12 2 -10 11 -10 14 0 18 6 3 12 9 12 15 0 6 -21 9 -50 6 -56
-3 -60 1 -60 67 0 49 5 52 95 51 32 -1 54 -7 62 -16z"/>
<path d="M2778 651 c-49 -16 -95 -50 -111 -83 -15 -31 -15 -33 6 -48 29 -20
32 -40 7 -40 -11 0 -20 7 -20 16 0 8 -4 12 -10 9 -24 -15 -3 -149 31 -197 27
-37 88 -68 136 -68 50 0 113 18 113 32 0 6 7 20 17 30 15 17 15 18 -8 18 -18
0 -21 2 -10 9 9 6 22 6 34 -1 24 -13 29 -6 31 38 1 41 -22 60 -31 25 -3 -12
-11 -21 -18 -21 -8 0 -23 -13 -35 -29 -29 -42 -92 -51 -143 -21 -20 12 -35 26
-32 30 3 5 0 14 -7 22 -7 7 -13 31 -12 53 1 76 14 117 50 151 l34 34 53 -20
c28 -11 53 -20 55 -20 1 0 2 -6 2 -12 0 -7 7 -21 15 -32 17 -23 65 -15 65 12
0 28 -37 80 -69 97 -38 19 -108 27 -143 16z m187 -81 c3 -5 1 -10 -4 -10 -6 0
-11 5 -11 10 0 6 2 10 4 10 3 0 8 -4 11 -10z m-260 -10 c3 -5 1 -10 -4 -10 -6
0 -11 5 -11 10 0 6 2 10 4 10 3 0 8 -4 11 -10z m-14 -185 c-1 -15 -24 -12 -29
3 -3 9 2 13 12 10 10 -1 17 -7 17 -13z m4 -35 c3 -5 -1 -10 -10 -10 -9 0 -13
5 -10 10 3 6 8 10 10 10 2 0 7 -4 10 -10z m220 -40 c-3 -5 -13 -10 -21 -10 -8
0 -12 5 -9 10 3 6 13 10 21 10 8 0 12 -4 9 -10z m-65 -30 c0 -5 -4 -10 -10
-10 -5 0 -10 5 -10 10 0 6 5 10 10 10 6 0 10 -4 10 -10z"/>
<path d="M2486 625 c-16 -9 -32 -12 -35 -7 -8 11 -110 12 -117 1 -3 -5 -14 -9
-25 -9 -10 0 -19 -4 -19 -10 0 -5 5 -10 11 -10 6 0 3 -7 -6 -16 -9 -9 -14 -23
-11 -31 3 -8 6 -39 6 -69 0 -34 4 -53 10 -49 6 3 10 1 10 -4 0 -6 -3 -11 -8
-11 -11 0 -1 -163 11 -178 8 -11 37 -12 131 -7 153 8 166 10 166 35 0 31 -44
43 -110 32 -30 -5 -72 -7 -93 -5 -31 4 -37 9 -36 27 4 46 0 54 -23 48 -22 -5
-22 -5 -6 11 22 22 62 37 99 37 16 0 29 5 29 13 0 8 4 7 10 -3 8 -12 13 -13
30 -2 12 7 20 8 20 2 0 -15 26 -12 40 5 10 12 10 18 0 30 -17 21 -96 20 -108
-1 -6 -11 -11 -13 -16 -5 -4 6 -23 11 -43 11 -30 0 -35 -3 -30 -20 3 -14 -1
-24 -15 -31 -27 -15 -35 -3 -14 20 12 13 18 38 19 75 1 30 5 57 8 60 3 4 46 7
96 7 106 0 118 5 104 42 -12 31 -40 35 -85 12z m-136 -176 c0 -5 -7 -9 -15 -9
-9 0 -12 6 -9 15 6 15 24 11 24 -6z m-10 -139 c0 -5 -4 -10 -10 -10 -5 0 -10
5 -10 10 0 6 5 10 10 10 6 0 10 -4 10 -10z"/>
<path d="M2033 609 c-24 -7 -31 -14 -27 -27 5 -14 4 -15 -5 -2 -16 23 -51 -18
-58 -68 -5 -38 -2 -45 31 -78 33 -33 41 -36 76 -31 25 3 39 1 37 -5 -1 -6 14
-15 33 -20 36 -9 70 -40 70 -64 0 -30 -39 -54 -85 -54 -41 0 -48 3 -73 40 -29
42 -44 52 -66 44 -25 -9 -27 -34 -6 -73 23 -46 70 -71 133 -71 58 0 77 8 77
31 0 13 7 19 21 19 12 0 17 -4 13 -11 -4 -8 0 -8 15 0 29 16 41 43 41 96 0 37
-5 51 -26 70 -33 31 -41 31 -49 4 -6 -17 -9 -18 -16 -8 -4 7 -3 19 2 26 8 9 4
14 -18 19 -15 3 -36 8 -45 11 -12 3 -18 -1 -18 -12 0 -12 5 -15 18 -10 14 5
15 4 4 -7 -11 -11 -17 -8 -36 15 -12 15 -31 27 -43 27 -24 0 -25 21 -4 77 12
29 44 56 38 31 -1 -6 12 -14 28 -18 17 -4 40 -12 53 -19 12 -7 32 -9 42 -6 14
4 20 2 20 -9 0 -9 -8 -16 -17 -16 -13 0 -14 -3 -6 -11 19 -19 43 -2 43 30 0
35 -15 48 -35 31 -17 -14 -57 -10 -63 8 -2 8 9 12 35 12 36 1 37 2 19 15 -11
8 -34 15 -50 14 -17 0 -25 -3 -18 -6 6 -2 9 -9 6 -15 -3 -5 -13 0 -21 11 -15
23 -22 24 -70 10z m17 -159 c0 -5 -12 -10 -26 -10 -14 0 -23 4 -19 10 3 6 15
10 26 10 10 0 19 -4 19 -10z"/>
<path d="M1677 585 c-10 -7 -23 -28 -27 -47 -5 -18 -28 -85 -51 -148 -66 -183
-67 -189 -44 -206 31 -23 49 -12 69 44 l19 52 52 0 c29 0 65 3 81 6 26 5 31 1
54 -43 20 -38 30 -48 50 -48 44 0 37 40 -40 211 -84 189 -111 219 -163 179z
m54 -112 c6 -16 20 -48 30 -72 11 -24 17 -46 14 -49 -3 -3 -30 -7 -62 -10 -51
-4 -56 -3 -49 13 3 10 14 47 22 82 9 34 20 63 25 63 5 0 14 -12 20 -27z"/>
<path d="M1205 573 c-11 -3 -26 -10 -32 -15 -18 -15 -16 -69 3 -83 15 -10 15
-13 0 -28 -13 -13 -15 -29 -10 -89 8 -100 9 -101 17 -115 5 -7 4 -13 -1 -13
-15 0 -11 -48 5 -61 21 -18 70 6 53 26 -8 10 -8 19 -1 34 6 11 11 40 11 65 0
42 2 46 25 46 39 0 74 -21 96 -57 11 -18 25 -33 30 -33 5 0 9 -7 9 -15 0 -27
33 -54 63 -51 15 2 30 6 33 8 9 9 -44 103 -75 132 -34 33 -39 46 -16 46 8 0
15 5 15 10 0 6 7 10 15 10 17 0 45 49 45 79 0 31 -19 64 -48 86 -22 16 -44 20
-122 22 -52 1 -104 -1 -115 -4z m235 -53 c0 -5 -6 -10 -14 -10 -8 0 -18 5 -21
10 -3 6 3 10 14 10 12 0 21 -4 21 -10z m-44 -21 c19 -16 9 -67 -18 -90 -16
-15 -16 -17 -3 -23 9 -3 13 -11 10 -16 -5 -8 -11 -7 -21 1 -10 8 -14 8 -14 0
0 -6 -5 -11 -11 -11 -6 0 -8 9 -4 20 6 18 2 20 -44 20 -51 0 -51 0 -52 33 -2
50 2 71 15 80 16 12 124 1 142 -14z m-186 -9 c0 -5 -5 -10 -11 -10 -5 0 -7 5
-4 10 3 6 8 10 11 10 2 0 4 -4 4 -10z m0 -50 c0 -5 -5 -10 -11 -10 -5 0 -7 5
-4 10 3 6 8 10 11 10 2 0 4 -4 4 -10z"/>
<path d="M930 545 c-21 -8 -39 -9 -44 -4 -11 10 -50 12 -83 3 -29 -8 -30 -40
-2 -54 23 -13 69 -6 69 10 0 6 5 10 11 10 5 0 7 -5 4 -10 -3 -6 0 -13 9 -16
14 -6 27 -97 31 -239 3 -85 3 -83 26 -95 16 -9 25 -8 40 6 18 16 25 45 14 55
-2 3 -6 67 -8 142 -3 111 -2 137 10 137 7 0 22 6 33 13 15 9 23 9 28 1 11 -18
52 2 52 25 0 10 -7 22 -16 25 -27 10 -137 4 -174 -9z m64 -10 c-6 -16 -24 -21
-24 -7 0 11 11 22 21 22 5 0 6 -7 3 -15z m-17 -151 c-3 -3 -12 -4 -19 -1 -8 3
-5 6 6 6 11 1 17 -2 13 -5z"/>
<path d="M480 515 c-15 -18 -5 -347 12 -379 9 -17 19 -18 127 -12 137 8 151
11 151 36 0 29 -17 34 -115 31 l-92 -2 -8 93 c-4 51 -7 119 -6 150 1 32 -3 66
-9 78 -13 24 -42 26 -60 5z"/>
<path d="M390 510 c0 -5 5 -10 10 -10 6 0 10 5 10 10 0 6 -4 10 -10 10 -5 0
-10 -4 -10 -10z"/>
<path d="M97 503 c-2 -5 -5 -47 -6 -95 -1 -74 1 -88 14 -88 9 0 13 -5 10 -10
-4 -6 -11 -8 -16 -5 -10 7 -12 -19 -3 -63 4 -18 14 -34 25 -37 22 -7 25 -25 4
-25 -8 0 -12 -6 -9 -15 4 -10 16 -13 37 -10 27 4 28 4 7 -3 l-25 -8 30 -20
c35 -23 146 -25 190 -3 58 29 70 59 72 185 2 63 -1 114 -6 114 -5 0 -8 16 -7
35 3 29 0 35 -16 35 -14 0 -18 -5 -14 -15 4 -11 -3 -19 -20 -25 -19 -8 -24
-15 -19 -28 8 -21 8 -183 -1 -217 -3 -14 -11 -25 -18 -25 -6 0 -4 -5 4 -10 10
-8 -5 -9 -50 -4 -36 4 -68 9 -73 11 -23 13 -38 69 -38 144 -1 80 -1 81 -30 92
-38 15 -37 27 1 22 35 -5 40 16 14 53 -15 21 -48 30 -57 15z m30 -139 c-3 -3
-12 -4 -19 -1 -8 3 -5 6 6 6 11 1 17 -2 13 -5z m88 -214 c3 -6 -1 -7 -9 -4
-18 7 -21 14 -7 14 6 0 13 -4 16 -10z"/>
<path d="M345 499 c-4 -6 -3 -15 3 -21 6 -6 11 -4 15 6 7 18 -9 31 -18 15z"/>
<path d="M3423 413 c-20 -4 -23 -11 -23 -52 0 -82 4 -84 165 -74 l140 8 0 25
0 25 -95 -3 c-131 -4 -140 -1 -133 43 6 37 3 39 -54 28z m17 -43 c0 -5 -5 -10
-11 -10 -5 0 -7 5 -4 10 3 6 8 10 11 10 2 0 4 -4 4 -10z"/>
<path d="M4428 295 c-3 -3 -72 -7 -155 -10 -83 -3 -201 -9 -264 -14 -63 -6
-188 -12 -279 -16 -267 -10 -271 -10 -281 -25 -7 -13 -9 -13 -9 -1 0 22 -263
7 -290 -16 -28 -25 -25 -43 8 -43 35 0 382 19 445 24 32 3 53 11 62 23 13 17
14 17 20 1 6 -15 20 -18 74 -18 37 0 71 3 75 7 4 4 44 6 89 5 45 -2 141 2 212
7 72 6 198 13 280 16 83 4 153 9 157 13 4 4 5 17 2 30 -6 20 -12 22 -73 22
-37 0 -70 -2 -73 -5z m-818 -65 c0 -5 -5 -10 -11 -10 -5 0 -7 5 -4 10 3 6 8
10 11 10 2 0 4 -4 4 -10z m-440 -40 c0 -5 -5 -10 -11 -10 -5 0 -7 5 -4 10 3 6
8 10 11 10 2 0 4 -4 4 -10z"/>
<path d="M2960 219 c-401 -24 -519 -30 -551 -29 -20 0 -43 -6 -51 -14 -11 -10
-19 -11 -33 -4 -12 7 -70 8 -164 4 -496 -22 -600 -27 -726 -37 -77 -6 -146
-16 -152 -21 -7 -6 -13 -19 -13 -29 0 -22 -5 -22 180 -9 74 5 185 12 245 15
434 20 585 28 690 36 66 5 130 9 143 9 12 0 25 7 28 15 8 20 24 19 24 -1 0
-15 12 -16 113 -9 61 4 115 12 118 17 4 6 12 7 19 3 15 -9 225 -6 252 4 23 8
36 62 15 59 -7 0 -68 -5 -137 -9z m-450 -49 c0 -5 -2 -10 -4 -10 -3 0 -8 5
-11 10 -3 6 -1 10 4 10 6 0 11 -4 11 -10z m-1200 -74 c0 -3 -4 -8 -10 -11 -5
-3 -10 -1 -10 4 0 6 5 11 10 11 6 0 10 -2 10 -4z"/>
<path d="M1088 120 c-73 -4 -134 -12 -142 -19 -10 -8 -15 -9 -18 -1 -2 8 -76
7 -266 -3 -238 -13 -301 -21 -264 -34 21 -8 13 -23 -13 -23 -19 0 -25 5 -23
18 3 18 -16 20 -197 13 -116 -4 -125 -8 -125 -43 0 -27 2 -29 27 -24 16 3 73
8 128 11 204 9 355 16 520 26 94 5 238 12 320 15 178 6 210 14 210 49 0 16 -5
24 -15 23 -8 0 -72 -4 -142 -8z"/>
</g>
</svg>
